<svg id="svg" version="1.1" xmlns="http://www.w3.org/2000/svg" xmlns:xlink="http://www.w3.org/1999/xlink" width="400" height="309.25" viewBox="0, 0, 400,309.25"><g id="svgg"><path id="path0" d="M249.800 29.436 C 250.996 29.482,253.021 29.482,254.300 29.436 C 255.579 29.391,254.600 29.354,252.125 29.353 C 249.650 29.353,248.604 29.390,249.800 29.436 M244.942 29.681 C 245.391 29.737,246.066 29.736,246.442 29.679 C 246.818 29.622,246.450 29.576,245.625 29.577 C 244.800 29.579,244.493 29.626,244.942 29.681 M257.938 29.681 C 258.384 29.736,259.116 29.736,259.563 29.681 C 260.009 29.625,259.644 29.580,258.750 29.580 C 257.856 29.580,257.491 29.625,257.938 29.681 M243.000 30.022 C 244.091 30.170,244.098 30.176,243.207 30.212 C 227.611 30.851,207.486 41.253,197.173 54.007 C 196.787 54.484,196.540 54.734,196.625 54.563 C 196.846 54.116,196.621 54.177,196.218 54.673 C 195.985 54.960,195.975 55.036,196.188 54.908 C 196.671 54.618,194.764 57.845,194.066 58.500 C 193.803 58.746,194.587 57.356,195.299 56.312 C 195.698 55.728,195.960 55.250,195.882 55.250 C 195.571 55.250,193.787 58.305,193.910 58.626 C 194.344 59.757,190.965 64.416,189.898 64.158 C 180.965 62.001,159.805 64.767,149.762 69.404 C 148.737 69.877,147.747 70.206,147.561 70.135 C 147.352 70.055,147.292 70.116,147.403 70.295 C 147.524 70.491,147.442 70.531,147.153 70.420 C 146.907 70.326,146.787 70.357,146.871 70.494 C 146.952 70.625,146.480 71.006,145.822 71.341 C 144.325 72.102,140.118 74.858,139.890 75.226 C 139.797 75.377,139.608 75.500,139.470 75.500 C 139.333 75.500,139.306 75.359,139.411 75.188 C 139.516 75.016,139.045 75.345,138.364 75.919 C 136.550 77.448,131.406 82.845,132.188 82.399 C 132.713 82.099,132.535 82.643,131.942 83.149 C 131.389 83.620,131.387 83.620,131.750 83.125 C 132.113 82.630,132.111 82.630,131.558 83.101 C 130.986 83.589,130.802 83.902,131.250 83.625 C 131.672 83.364,131.527 83.917,131.077 84.282 C 130.790 84.515,130.714 84.525,130.842 84.313 C 131.115 83.857,130.868 83.930,130.468 84.423 C 130.177 84.782,130.177 84.815,130.470 84.638 C 130.953 84.347,130.842 84.549,128.938 87.408 C 126.854 90.538,124.314 95.759,123.163 99.280 C 122.171 102.314,121.756 104.286,119.991 114.361 C 118.817 121.063,117.286 128.859,116.798 130.621 L 116.591 131.368 113.233 131.784 C 101.397 133.250,91.338 138.084,77.172 149.116 C 73.539 151.945,73.043 152.287,73.396 151.716 C 73.492 151.560,71.924 152.753,69.911 154.368 C 67.897 155.982,66.250 157.365,66.250 157.440 C 66.250 157.516,66.447 157.410,66.688 157.205 C 66.928 157.000,68.306 155.896,69.750 154.750 C 71.194 153.604,72.572 152.500,72.813 152.295 C 73.053 152.090,73.250 151.984,73.250 152.060 C 73.250 152.226,66.074 158.000,65.867 158.000 C 65.786 158.000,65.803 157.859,65.903 157.688 C 66.004 157.516,65.870 157.552,65.605 157.769 C 65.341 157.985,64.384 158.772,63.478 159.519 C 62.572 160.265,61.503 161.134,61.103 161.451 L 60.375 162.028 61.250 161.467 C 61.731 161.159,62.744 160.391,63.500 159.760 C 65.317 158.244,66.134 157.706,64.875 158.854 C 56.713 166.298,45.808 169.526,37.250 167.033 C 32.292 165.588,17.272 158.821,17.654 158.204 C 17.761 158.030,17.714 157.992,17.533 158.105 C 17.139 158.348,10.500 154.543,10.500 154.074 C 10.500 153.949,10.813 154.127,12.125 155.000 C 13.437 155.873,13.750 156.051,13.750 155.926 C 13.750 155.870,12.950 155.292,11.973 154.642 C 10.995 153.992,10.265 153.572,10.349 153.709 C 10.434 153.845,10.392 153.995,10.255 154.041 C 9.783 154.201,12.009 163.709,14.245 171.084 C 19.392 188.063,27.595 204.621,36.229 215.458 C 38.226 217.965,38.547 218.460,37.938 218.090 C 37.416 217.774,40.223 220.934,42.838 223.607 L 45.302 226.125 42.749 223.375 C 37.955 218.210,38.146 218.182,43.262 223.301 C 60.361 240.406,80.318 246.863,103.901 242.919 L 107.178 242.371 108.026 244.248 C 108.493 245.280,108.860 246.264,108.841 246.435 C 108.822 246.605,108.902 246.685,109.019 246.613 C 109.296 246.442,110.565 248.942,110.365 249.266 C 110.281 249.401,110.329 249.481,110.471 249.444 C 110.614 249.406,111.410 250.592,112.241 252.079 C 115.207 257.390,120.186 263.640,124.243 267.146 C 126.524 269.117,127.072 269.692,125.812 268.793 C 124.314 267.723,120.715 264.143,118.806 261.823 C 116.023 258.443,115.615 257.976,116.067 258.688 C 116.941 260.069,120.722 264.406,122.610 266.193 C 124.810 268.275,126.984 270.083,126.663 269.563 C 126.557 269.391,126.534 269.250,126.612 269.250 C 126.884 269.250,128.875 270.788,128.875 270.997 C 128.875 271.113,128.977 271.302,129.103 271.417 C 129.237 271.540,129.248 271.484,129.130 271.280 C 128.887 270.861,128.995 270.904,130.813 271.962 C 131.630 272.437,132.179 272.912,132.086 273.062 C 131.996 273.208,132.040 273.255,132.183 273.166 C 132.326 273.078,133.215 273.357,134.159 273.788 C 157.995 284.650,183.317 279.361,205.082 258.974 L 206.788 257.375 208.207 258.727 C 212.032 262.373,219.087 267.355,223.625 269.615 C 240.890 278.213,263.102 277.736,282.255 268.356 C 284.340 267.335,286.152 266.564,286.280 266.643 C 286.408 266.722,286.481 266.675,286.444 266.537 C 286.406 266.400,287.357 265.688,288.557 264.956 C 295.986 260.424,303.350 253.228,306.741 247.187 C 307.185 246.397,307.648 245.812,307.771 245.888 C 307.894 245.964,307.920 245.833,307.830 245.597 C 307.719 245.308,307.759 245.226,307.955 245.347 C 308.150 245.468,308.191 245.386,308.080 245.097 C 307.969 244.808,308.009 244.726,308.205 244.847 C 308.390 244.961,308.444 244.895,308.355 244.662 C 308.278 244.462,308.435 243.866,308.703 243.337 C 309.881 241.016,311.500 234.741,311.500 232.499 L 311.500 231.553 312.563 231.803 C 313.971 232.135,324.770 231.849,328.933 231.369 C 336.265 230.525,344.413 228.340,349.046 225.976 C 349.598 225.695,350.212 225.528,350.412 225.605 C 350.645 225.694,350.711 225.640,350.597 225.455 C 350.476 225.259,350.558 225.219,350.847 225.330 C 351.136 225.441,351.218 225.400,351.097 225.205 C 350.976 225.009,351.058 224.969,351.347 225.080 C 351.593 225.174,351.713 225.143,351.629 225.006 C 351.548 224.875,352.035 224.487,352.712 224.144 C 354.646 223.164,358.940 220.207,361.054 218.399 C 362.948 216.780,363.465 216.441,363.092 217.063 C 362.667 217.773,368.175 212.503,370.182 210.279 C 373.310 206.814,373.661 206.402,373.313 206.601 C 372.787 206.901,372.965 206.357,373.558 205.851 C 374.111 205.380,374.113 205.380,373.750 205.875 C 373.387 206.370,373.389 206.370,373.942 205.899 C 374.514 205.411,374.698 205.098,374.250 205.375 C 373.785 205.662,373.996 205.282,375.188 203.682 C 376.876 201.416,377.550 200.571,377.348 200.976 C 377.233 201.207,377.273 201.266,377.465 201.146 C 377.626 201.047,377.693 200.861,377.614 200.732 C 377.535 200.604,378.086 199.503,378.840 198.285 C 389.436 181.156,392.925 154.407,387.373 132.879 C 383.196 116.687,379.266 107.488,373.091 99.456 C 371.977 98.009,371.756 97.570,372.313 97.913 C 372.740 98.177,371.129 96.161,370.572 95.735 C 370.326 95.548,370.412 95.727,370.763 96.135 C 371.960 97.525,372.073 97.878,370.920 96.625 C 369.799 95.408,369.431 94.777,370.063 95.160 C 370.868 95.647,366.177 90.773,364.037 88.899 C 361.201 86.416,360.076 85.517,360.339 85.942 C 360.626 86.407,360.111 86.311,359.718 85.827 C 359.422 85.462,359.427 85.434,359.750 85.625 C 360.073 85.816,360.078 85.788,359.782 85.423 C 359.410 84.965,359.124 84.843,359.375 85.250 C 359.665 85.719,359.229 85.501,357.927 84.524 C 348.372 77.357,334.646 72.966,320.580 72.575 L 315.286 72.427 315.134 71.820 C 314.893 70.862,312.117 64.470,310.250 60.576 C 308.492 56.909,306.582 53.767,304.469 51.068 C 303.229 49.484,303.003 49.071,303.563 49.410 C 304.178 49.783,301.266 46.585,299.091 44.499 C 296.838 42.339,294.486 40.370,294.837 40.938 C 294.943 41.109,294.966 41.250,294.888 41.250 C 294.616 41.250,292.625 39.712,292.625 39.503 C 292.625 39.387,292.523 39.198,292.397 39.083 C 292.265 38.962,292.245 39.006,292.350 39.188 C 292.629 39.673,292.370 39.571,290.833 38.587 C 285.044 34.884,275.460 32.007,264.000 30.531 C 261.083 30.155,260.619 30.045,261.625 29.969 C 262.313 29.917,258.150 29.874,252.375 29.872 C 246.600 29.870,242.381 29.938,243.000 30.022 M240.440 30.177 C 240.751 30.237,241.201 30.234,241.440 30.172 C 241.679 30.109,241.425 30.060,240.875 30.063 C 240.325 30.066,240.129 30.117,240.440 30.177 M263.440 30.177 C 263.751 30.237,264.201 30.234,264.440 30.172 C 264.679 30.109,264.425 30.060,263.875 30.063 C 263.325 30.066,263.129 30.117,263.440 30.177 M265.313 30.422 C 265.553 30.485,265.947 30.485,266.188 30.422 C 266.428 30.359,266.231 30.308,265.750 30.308 C 265.269 30.308,265.072 30.359,265.313 30.422 M236.375 30.750 C 235.706 30.920,235.692 30.941,236.250 30.941 C 236.594 30.941,237.213 30.855,237.625 30.750 C 238.294 30.580,238.308 30.559,237.750 30.559 C 237.406 30.559,236.787 30.645,236.375 30.750 M280.617 33.752 C 282.263 34.287,283.651 34.683,283.701 34.632 C 283.820 34.513,278.365 32.745,277.942 32.765 C 277.768 32.773,278.971 33.217,280.617 33.752 M218.188 37.015 C 216.572 37.834,215.250 38.560,215.250 38.629 C 215.250 38.741,221.225 35.832,221.479 35.597 C 221.868 35.236,220.722 35.730,218.188 37.015 M285.771 35.596 C 286.025 35.829,289.500 37.493,289.500 37.381 C 289.500 37.242,286.111 35.500,285.840 35.500 C 285.744 35.500,285.714 35.543,285.771 35.596 M259.000 36.510 C 285.848 38.925,303.802 53.027,309.756 76.375 L 310.649 79.875 316.012 79.914 C 333.909 80.046,343.075 82.350,353.625 89.371 C 377.451 105.228,390.010 142.898,381.961 174.366 C 376.159 197.052,365.713 210.972,348.187 219.371 C 331.430 227.403,310.999 227.154,299.992 218.784 C 288.098 209.738,284.251 193.740,290.143 177.815 C 295.593 163.082,303.332 157.272,313.398 160.357 C 320.153 162.428,322.400 162.153,322.358 159.263 C 322.310 156.045,319.536 154.076,313.500 152.974 C 299.155 150.356,285.668 161.691,281.753 179.656 C 277.069 201.151,285.468 221.450,301.658 227.758 C 306.138 229.504,306.149 229.514,305.875 231.718 C 302.678 257.436,267.371 275.274,235.826 267.108 C 224.366 264.142,218.894 260.443,211.860 250.907 C 210.493 249.054,209.241 247.580,209.077 247.631 C 208.913 247.682,205.594 250.178,201.702 253.178 C 180.309 269.666,172.747 272.947,157.375 272.410 C 137.788 271.726,126.564 264.828,118.166 248.311 C 103.707 219.877,111.600 199.810,138.498 196.620 C 154.369 194.738,162.400 198.481,167.266 210.027 C 168.914 213.938,169.379 214.800,170.858 216.688 C 172.535 218.828,172.657 218.865,172.922 217.313 C 175.680 201.167,161.980 188.766,142.000 189.322 C 115.742 190.052,100.093 208.315,104.788 232.750 C 105.065 234.194,105.311 235.478,105.333 235.604 C 105.548 236.785,88.172 237.874,82.500 237.036 C 59.841 233.685,43.862 219.313,31.456 191.125 C 28.818 185.132,23.536 171.724,23.352 170.553 L 23.183 169.481 24.529 170.014 C 37.525 175.163,43.488 176.243,50.875 174.786 C 58.216 173.339,62.014 170.993,78.879 157.485 C 97.755 142.366,105.134 139.001,119.406 139.000 C 123.844 139.000,123.653 139.105,123.855 136.538 C 127.204 93.877,141.846 74.324,172.375 71.743 C 175.149 71.509,186.000 71.632,186.000 71.899 C 186.000 71.941,185.601 74.034,185.112 76.550 C 182.949 87.701,182.755 92.904,184.246 99.781 C 188.292 118.432,206.432 131.372,228.500 131.348 C 258.178 131.317,269.658 111.727,256.233 84.022 L 254.487 80.419 253.721 81.147 C 250.974 83.758,250.872 87.027,253.322 93.958 C 255.883 101.203,253.887 111.544,248.887 116.941 C 234.049 132.954,199.463 121.212,193.635 98.182 C 190.745 86.765,193.273 72.062,199.813 62.250 C 210.707 45.905,236.885 34.521,259.000 36.510 M289.875 37.681 C 290.012 37.813,290.575 38.173,291.125 38.481 C 291.675 38.790,291.900 38.856,291.625 38.627 C 291.066 38.163,289.483 37.307,289.875 37.681 M214.188 39.143 C 213.253 39.650,213.310 39.861,214.250 39.375 C 214.662 39.162,215.000 38.934,215.000 38.869 C 215.000 38.708,214.973 38.717,214.188 39.143 M293.000 39.591 C 293.000 39.660,293.337 39.956,293.750 40.250 C 294.163 40.544,294.500 40.728,294.500 40.659 C 294.500 40.590,294.163 40.294,293.750 40.000 C 293.337 39.706,293.000 39.522,293.000 39.591 M209.810 41.879 C 208.677 42.638,207.750 43.316,207.750 43.387 C 207.750 43.511,211.384 41.151,211.863 40.716 C 212.436 40.195,211.723 40.599,209.810 41.879 M298.915 44.577 C 300.207 45.812,301.737 47.397,302.314 48.099 C 302.890 48.801,302.015 48.013,300.369 46.349 C 298.722 44.685,296.813 42.847,296.125 42.265 C 295.436 41.682,295.254 41.459,295.720 41.769 C 296.185 42.078,297.623 43.341,298.915 44.577 M205.750 44.799 C 203.757 46.371,198.646 51.467,197.524 53.000 C 196.707 54.117,196.709 54.116,197.782 52.875 C 199.799 50.543,202.868 47.467,204.600 46.043 C 207.092 43.994,207.641 43.516,207.500 43.516 C 207.431 43.517,206.644 44.094,205.750 44.799 M304.817 51.125 C 305.425 51.950,306.463 53.441,307.123 54.438 C 307.783 55.434,308.370 56.250,308.426 56.250 C 308.672 56.250,305.543 51.676,304.493 50.500 C 304.056 50.011,304.199 50.286,304.817 51.125 M309.524 58.375 C 309.524 58.513,309.907 59.356,310.375 60.250 C 310.843 61.144,311.226 61.763,311.226 61.625 C 311.226 61.487,310.843 60.644,310.375 59.750 C 309.907 58.856,309.524 58.237,309.524 58.375 M192.730 60.547 C 192.397 61.260,191.798 62.300,191.399 62.859 C 190.909 63.546,190.841 63.726,191.191 63.417 C 191.740 62.932,193.621 59.537,193.441 59.357 C 193.382 59.299,193.063 59.835,192.730 60.547 M311.521 62.625 C 311.521 62.763,311.737 63.269,312.000 63.750 C 312.263 64.231,312.479 64.513,312.479 64.375 C 312.479 64.237,312.263 63.731,312.000 63.250 C 311.737 62.769,311.521 62.487,311.521 62.625 M178.575 63.186 C 179.785 63.232,181.697 63.232,182.825 63.186 C 183.952 63.140,182.963 63.102,180.625 63.102 C 178.287 63.103,177.365 63.140,178.575 63.186 M173.682 63.430 C 174.126 63.486,174.913 63.487,175.432 63.432 C 175.951 63.378,175.588 63.333,174.625 63.332 C 173.662 63.331,173.238 63.375,173.682 63.430 M185.563 63.429 C 185.941 63.486,186.559 63.486,186.938 63.429 C 187.316 63.372,187.006 63.325,186.250 63.325 C 185.494 63.325,185.184 63.372,185.563 63.429 M171.190 63.677 C 171.501 63.737,171.951 63.734,172.190 63.672 C 172.429 63.609,172.175 63.560,171.625 63.563 C 171.075 63.566,170.879 63.617,171.190 63.677 M188.313 63.672 C 188.553 63.735,188.947 63.735,189.188 63.672 C 189.428 63.609,189.231 63.558,188.750 63.558 C 188.269 63.558,188.072 63.609,188.313 63.672 M169.063 63.922 C 169.303 63.985,169.697 63.985,169.938 63.922 C 170.178 63.859,169.981 63.808,169.500 63.808 C 169.019 63.808,168.822 63.859,169.063 63.922 M312.768 65.375 C 312.768 65.513,312.928 65.906,313.125 66.250 C 313.322 66.594,313.482 66.763,313.482 66.625 C 313.482 66.487,313.322 66.094,313.125 65.750 C 312.928 65.406,312.768 65.237,312.768 65.375 M157.125 66.250 C 156.810 66.385,156.764 66.465,157.000 66.465 C 157.206 66.465,157.600 66.368,157.875 66.250 C 158.190 66.115,158.236 66.035,158.000 66.035 C 157.794 66.035,157.400 66.132,157.125 66.250 M149.000 69.250 C 148.519 69.513,148.238 69.729,148.375 69.729 C 148.512 69.729,149.019 69.513,149.500 69.250 C 149.981 68.987,150.262 68.771,150.125 68.771 C 149.988 68.771,149.481 68.987,149.000 69.250 M314.359 69.125 C 315.589 72.375,315.505 72.252,316.472 72.217 L 317.375 72.184 316.538 72.030 C 315.797 71.893,315.633 71.707,315.101 70.396 C 314.553 69.046,313.918 67.957,314.359 69.125 M145.188 71.143 C 144.253 71.650,144.310 71.861,145.250 71.375 C 145.662 71.162,146.000 70.934,146.000 70.869 C 146.000 70.708,145.973 70.717,145.188 71.143 M143.313 72.279 C 142.460 72.824,142.185 73.191,142.938 72.777 C 143.511 72.462,144.410 71.767,144.250 71.762 C 144.181 71.760,143.759 71.993,143.313 72.279 M319.072 72.185 C 319.867 72.235,321.105 72.234,321.822 72.184 C 322.538 72.134,321.887 72.093,320.375 72.094 C 318.863 72.094,318.276 72.135,319.072 72.185 M324.438 72.426 C 324.747 72.486,325.253 72.486,325.563 72.426 C 325.872 72.367,325.619 72.318,325.000 72.318 C 324.381 72.318,324.128 72.367,324.438 72.426 M327.063 72.672 C 327.303 72.735,327.697 72.735,327.938 72.672 C 328.178 72.609,327.981 72.558,327.500 72.558 C 327.019 72.558,326.822 72.609,327.063 72.672 M140.938 73.884 C 140.284 74.363,139.750 74.810,139.750 74.877 C 139.750 74.944,140.313 74.595,141.000 74.101 C 142.068 73.334,142.452 72.980,142.188 73.006 C 142.153 73.010,141.591 73.404,140.938 73.884 M332.375 73.500 C 333.433 73.769,334.340 73.769,333.500 73.500 C 333.156 73.390,332.594 73.302,332.250 73.304 C 331.689 73.309,331.701 73.329,332.375 73.500 M335.875 74.267 C 336.837 74.526,337.734 74.704,337.867 74.663 C 338.148 74.577,334.933 73.739,334.449 73.773 C 334.271 73.785,334.913 74.007,335.875 74.267 M338.625 75.000 C 338.900 75.118,339.294 75.215,339.500 75.215 C 339.736 75.215,339.690 75.135,339.375 75.000 C 339.100 74.882,338.706 74.785,338.500 74.785 C 338.264 74.785,338.310 74.865,338.625 75.000 M137.703 77.013 C 136.783 77.839,135.222 79.384,134.234 80.445 C 133.173 81.585,132.858 81.850,133.466 81.093 C 134.557 79.734,138.905 75.497,139.200 75.505 C 139.296 75.507,138.623 76.186,137.703 77.013 M347.271 78.096 C 347.525 78.331,352.000 80.492,352.000 80.380 C 352.000 80.241,347.610 78.000,347.338 78.000 C 347.244 78.000,347.214 78.043,347.271 78.096 M352.250 80.612 C 352.250 80.681,352.587 80.912,353.000 81.125 C 353.413 81.338,353.750 81.457,353.750 81.388 C 353.750 81.319,353.413 81.088,353.000 80.875 C 352.587 80.662,352.250 80.543,352.250 80.612 M357.500 83.841 C 357.500 83.910,357.837 84.206,358.250 84.500 C 358.663 84.794,359.000 84.978,359.000 84.909 C 359.000 84.840,358.663 84.544,358.250 84.250 C 357.837 83.956,357.500 83.772,357.500 83.841 M128.796 86.813 C 127.656 88.508,126.759 90.033,127.069 89.750 C 127.338 89.504,130.239 85.000,130.128 85.000 C 130.066 85.000,129.467 85.816,128.796 86.813 M364.000 89.125 C 365.354 90.322,367.222 92.162,368.150 93.213 C 369.423 94.654,368.981 94.291,366.357 91.739 C 364.442 89.877,362.313 87.871,361.625 87.281 C 360.938 86.692,360.637 86.376,360.957 86.580 C 361.277 86.783,362.647 87.929,364.000 89.125 M126.250 91.000 C 125.969 91.550,125.796 92.000,125.865 92.000 C 125.934 92.000,126.219 91.550,126.500 91.000 C 126.781 90.450,126.954 90.000,126.885 90.000 C 126.816 90.000,126.531 90.450,126.250 91.000 M124.670 94.137 C 124.083 95.368,124.165 95.578,124.779 94.414 C 125.058 93.885,125.242 93.409,125.188 93.355 C 125.134 93.300,124.901 93.652,124.670 94.137 M373.109 99.082 C 373.494 99.587,373.860 100.000,373.922 100.000 C 374.095 100.000,373.013 98.538,372.693 98.340 C 372.537 98.243,372.724 98.577,373.109 99.082 M122.143 100.893 C 122.051 101.259,122.024 101.607,122.083 101.666 C 122.142 101.725,122.265 101.474,122.357 101.107 C 122.449 100.741,122.476 100.393,122.417 100.334 C 122.358 100.275,122.235 100.526,122.143 100.893 M375.276 102.188 C 376.498 104.019,377.341 105.113,376.867 104.250 C 376.411 103.419,374.226 100.250,374.110 100.250 C 374.041 100.250,374.566 101.122,375.276 102.188 M120.886 106.386 C 120.791 107.024,120.764 107.597,120.826 107.659 C 120.889 107.722,121.018 107.251,121.114 106.614 C 121.209 105.976,121.236 105.403,121.174 105.341 C 121.111 105.278,120.982 105.749,120.886 106.386 M378.125 106.750 C 378.338 107.162,378.569 107.500,378.638 107.500 C 378.707 107.500,378.588 107.162,378.375 106.750 C 378.162 106.338,377.931 106.000,377.862 106.000 C 377.793 106.000,377.912 106.338,378.125 106.750 M380.053 110.365 C 380.769 111.803,381.394 112.940,381.442 112.891 C 381.553 112.780,379.040 107.750,378.874 107.750 C 378.808 107.750,379.338 108.927,380.053 110.365 M381.518 113.375 C 381.518 113.513,381.678 113.906,381.875 114.250 C 382.072 114.594,382.232 114.763,382.232 114.625 C 382.232 114.487,382.072 114.094,381.875 113.750 C 381.678 113.406,381.518 113.237,381.518 113.375 M382.393 115.500 C 382.485 115.844,382.665 116.294,382.792 116.500 C 382.953 116.761,382.973 116.684,382.857 116.250 C 382.765 115.906,382.585 115.456,382.458 115.250 C 382.297 114.989,382.277 115.066,382.393 115.500 M383.289 118.000 C 383.289 118.206,383.496 118.938,383.750 119.625 C 384.004 120.313,384.211 120.706,384.211 120.500 C 384.211 120.294,384.004 119.563,383.750 118.875 C 383.496 118.188,383.289 117.794,383.289 118.000 M118.015 122.515 C 117.841 123.487,117.748 124.332,117.809 124.392 C 117.870 124.453,118.062 123.707,118.235 122.735 C 118.409 121.763,118.502 120.918,118.441 120.858 C 118.380 120.797,118.188 121.543,118.015 122.515 M384.538 122.000 C 384.538 122.206,384.690 122.769,384.875 123.250 C 385.060 123.731,385.212 123.956,385.212 123.750 C 385.212 123.544,385.060 122.981,384.875 122.500 C 384.690 122.019,384.538 121.794,384.538 122.000 M385.535 125.250 C 385.535 125.456,385.632 125.850,385.750 126.125 C 385.885 126.440,385.965 126.486,385.965 126.250 C 385.965 126.044,385.868 125.650,385.750 125.375 C 385.615 125.060,385.535 125.014,385.535 125.250 M116.889 128.139 C 116.795 128.641,116.768 129.101,116.829 129.162 C 116.890 129.223,117.017 128.863,117.111 128.361 C 117.205 127.859,117.232 127.399,117.171 127.338 C 117.110 127.277,116.983 127.637,116.889 128.139 M386.285 127.750 C 386.285 127.956,386.382 128.350,386.500 128.625 C 386.635 128.940,386.715 128.986,386.715 128.750 C 386.715 128.544,386.618 128.150,386.500 127.875 C 386.365 127.560,386.285 127.514,386.285 127.750 M386.785 129.500 C 386.785 129.706,386.882 130.100,387.000 130.375 C 387.135 130.690,387.215 130.736,387.215 130.500 C 387.215 130.294,387.118 129.900,387.000 129.625 C 386.865 129.310,386.785 129.264,386.785 129.500 M116.250 130.734 C 116.250 130.863,115.884 131.014,115.438 131.069 C 114.638 131.168,114.639 131.171,115.563 131.210 C 116.247 131.239,116.500 131.149,116.500 130.875 C 116.500 130.669,116.444 130.500,116.375 130.500 C 116.306 130.500,116.250 130.605,116.250 130.734 M111.500 131.511 C 110.959 131.631,111.342 131.654,112.500 131.570 C 113.531 131.496,114.422 131.393,114.479 131.342 C 114.661 131.181,112.410 131.308,111.500 131.511 M108.125 132.119 C 106.449 132.550,107.235 132.566,109.125 132.140 C 109.950 131.954,110.344 131.801,110.000 131.800 C 109.656 131.799,108.813 131.943,108.125 132.119 M387.506 132.146 C 387.518 132.596,388.705 136.868,388.727 136.542 C 388.753 136.164,387.763 132.181,387.604 132.021 C 387.547 131.964,387.503 132.020,387.506 132.146 M105.625 132.750 C 105.310 132.885,105.264 132.965,105.500 132.965 C 105.706 132.965,106.100 132.868,106.375 132.750 C 106.690 132.615,106.736 132.535,106.500 132.535 C 106.294 132.535,105.900 132.632,105.625 132.750 M103.875 133.250 C 103.560 133.385,103.514 133.465,103.750 133.465 C 103.956 133.465,104.350 133.368,104.625 133.250 C 104.940 133.115,104.986 133.035,104.750 133.035 C 104.544 133.035,104.150 133.132,103.875 133.250 M99.125 134.986 C 98.575 135.247,98.237 135.460,98.375 135.461 C 98.716 135.464,100.689 134.540,100.375 134.525 C 100.237 134.519,99.675 134.726,99.125 134.986 M94.938 136.890 C 93.459 137.640,92.250 138.311,92.250 138.379 C 92.250 138.491,97.725 135.832,97.979 135.596 C 98.361 135.243,97.256 135.713,94.938 136.890 M91.188 138.893 C 90.253 139.400,90.310 139.611,91.250 139.125 C 91.662 138.912,92.000 138.684,92.000 138.619 C 92.000 138.458,91.973 138.467,91.188 138.893 M89.313 140.029 C 88.460 140.574,88.185 140.941,88.938 140.527 C 89.511 140.212,90.410 139.517,90.250 139.512 C 90.181 139.510,89.759 139.743,89.313 140.029 M85.150 142.754 C 82.029 144.885,77.250 148.442,77.250 148.633 C 77.250 148.696,78.628 147.720,80.313 146.463 C 81.997 145.207,84.388 143.505,85.625 142.681 C 87.898 141.168,88.459 140.750,88.217 140.750 C 88.144 140.750,86.764 141.652,85.150 142.754 M389.808 143.500 C 389.808 143.981,389.859 144.178,389.922 143.938 C 389.985 143.697,389.985 143.303,389.922 143.063 C 389.859 142.822,389.808 143.019,389.808 143.500 M390.072 145.875 C 390.073 146.563,390.122 146.814,390.179 146.434 C 390.237 146.054,390.235 145.492,390.176 145.184 C 390.117 144.877,390.070 145.188,390.072 145.875 M390.358 153.875 C 390.358 157.175,390.394 158.490,390.437 156.798 C 390.480 155.106,390.480 152.406,390.437 150.798 C 390.393 149.190,390.358 150.575,390.358 153.875 M75.625 149.777 C 73.722 151.315,73.416 151.741,75.203 150.366 C 76.584 149.304,77.209 148.729,76.952 148.759 C 76.910 148.764,76.313 149.222,75.625 149.777 M15.250 156.865 C 15.250 156.934,15.700 157.219,16.250 157.500 C 16.800 157.781,17.250 157.954,17.250 157.885 C 17.250 157.816,16.800 157.531,16.250 157.250 C 15.700 156.969,15.250 156.796,15.250 156.865 M18.000 158.374 C 18.000 158.540,22.530 160.803,22.641 160.692 C 22.690 160.643,21.666 160.074,20.365 159.428 C 19.064 158.782,18.000 158.308,18.000 158.374 M10.800 159.875 C 10.800 160.150,10.890 160.656,11.000 161.000 C 11.158 161.495,11.200 161.521,11.200 161.125 C 11.200 160.850,11.110 160.344,11.000 160.000 C 10.842 159.505,10.800 159.479,10.800 159.875 M390.072 161.875 C 390.073 162.563,390.122 162.814,390.179 162.434 C 390.237 162.054,390.235 161.492,390.176 161.184 C 390.117 160.877,390.070 161.188,390.072 161.875 M24.250 161.500 C 24.731 161.763,25.238 161.979,25.375 161.979 C 25.512 161.979,25.231 161.763,24.750 161.500 C 24.269 161.237,23.762 161.021,23.625 161.021 C 23.488 161.021,23.769 161.237,24.250 161.500 M59.185 162.593 C 57.984 163.332,57.649 163.680,58.625 163.176 C 59.409 162.771,60.466 162.016,60.250 162.016 C 60.181 162.016,59.702 162.276,59.185 162.593 M26.750 162.625 C 27.094 162.822,27.488 162.982,27.625 162.982 C 27.762 162.982,27.594 162.822,27.250 162.625 C 26.906 162.428,26.512 162.268,26.375 162.268 C 26.238 162.268,26.406 162.428,26.750 162.625 M28.500 163.375 C 28.844 163.572,29.238 163.732,29.375 163.732 C 29.512 163.732,29.344 163.572,29.000 163.375 C 28.656 163.178,28.262 163.018,28.125 163.018 C 27.988 163.018,28.156 163.178,28.500 163.375 M56.250 164.250 C 55.494 164.650,54.963 164.982,55.071 164.988 C 55.336 165.004,57.750 163.772,57.750 163.621 C 57.750 163.454,57.785 163.439,56.250 164.250 M11.906 164.500 C 11.993 164.981,12.163 165.600,12.284 165.875 C 12.434 166.218,12.453 166.101,12.344 165.500 C 12.257 165.019,12.087 164.400,11.966 164.125 C 11.816 163.782,11.797 163.899,11.906 164.500 M30.250 164.125 C 30.594 164.322,30.988 164.482,31.125 164.482 C 31.262 164.482,31.094 164.322,30.750 164.125 C 30.406 163.928,30.012 163.768,29.875 163.768 C 29.738 163.768,29.906 163.928,30.250 164.125 M389.813 164.625 C 389.816 165.175,389.867 165.371,389.927 165.060 C 389.987 164.749,389.984 164.299,389.922 164.060 C 389.859 163.821,389.810 164.075,389.813 164.625 M53.375 165.518 C 52.825 165.782,52.656 165.929,53.000 165.843 C 53.708 165.667,55.007 165.016,54.625 165.029 C 54.487 165.033,53.925 165.253,53.375 165.518 M34.250 165.708 C 34.456 165.835,34.906 166.015,35.250 166.107 C 35.684 166.223,35.761 166.203,35.500 166.042 C 35.294 165.915,34.844 165.735,34.500 165.643 C 34.066 165.527,33.989 165.547,34.250 165.708 M389.558 166.750 C 389.558 167.231,389.609 167.428,389.672 167.188 C 389.735 166.947,389.735 166.553,389.672 166.313 C 389.609 166.072,389.558 166.269,389.558 166.750 M12.535 166.750 C 12.535 166.956,12.632 167.350,12.750 167.625 C 12.885 167.940,12.965 167.986,12.965 167.750 C 12.965 167.544,12.868 167.150,12.750 166.875 C 12.615 166.560,12.535 166.514,12.535 166.750 M37.625 166.882 C 38.175 167.063,38.906 167.211,39.250 167.210 C 39.594 167.208,39.256 167.053,38.500 166.864 C 36.781 166.435,36.299 166.445,37.625 166.882 M49.250 166.750 C 48.748 166.911,48.723 166.952,49.125 166.958 C 49.400 166.962,49.850 166.868,50.125 166.750 C 50.762 166.476,50.105 166.476,49.250 166.750 M40.438 167.426 C 40.747 167.486,41.253 167.486,41.563 167.426 C 41.872 167.367,41.619 167.318,41.000 167.318 C 40.381 167.318,40.128 167.367,40.438 167.426 M45.438 167.426 C 45.747 167.486,46.253 167.486,46.563 167.426 C 46.872 167.367,46.619 167.318,46.000 167.318 C 45.381 167.318,45.128 167.367,45.438 167.426 M43.063 167.672 C 43.303 167.735,43.697 167.735,43.938 167.672 C 44.178 167.609,43.981 167.558,43.500 167.558 C 43.019 167.558,42.822 167.609,43.063 167.672 M389.308 168.500 C 389.308 168.981,389.359 169.178,389.422 168.938 C 389.485 168.697,389.485 168.303,389.422 168.063 C 389.359 167.822,389.308 168.019,389.308 168.500 M13.535 170.250 C 13.535 170.456,13.632 170.850,13.750 171.125 C 13.885 171.440,13.965 171.486,13.965 171.250 C 13.965 171.044,13.868 170.650,13.750 170.375 C 13.615 170.060,13.535 170.014,13.535 170.250 M14.769 174.139 C 14.742 174.513,15.785 177.548,15.901 177.432 C 15.953 177.380,15.724 176.558,15.392 175.606 C 15.059 174.654,14.779 173.994,14.769 174.139 M387.543 177.043 C 387.238 178.296,387.033 179.366,387.088 179.422 C 387.143 179.477,387.441 178.500,387.750 177.250 C 388.059 176.000,388.264 174.930,388.205 174.872 C 388.147 174.813,387.849 175.791,387.543 177.043 M16.408 179.000 C 16.493 179.344,16.715 179.963,16.903 180.375 C 17.178 180.977,17.215 181.002,17.092 180.500 C 17.007 180.156,16.785 179.537,16.597 179.125 C 16.322 178.523,16.285 178.498,16.408 179.000 M386.643 180.393 C 386.551 180.759,386.524 181.107,386.583 181.166 C 386.642 181.225,386.765 180.974,386.857 180.607 C 386.949 180.241,386.976 179.893,386.917 179.834 C 386.858 179.775,386.735 180.026,386.643 180.393 M17.393 181.750 C 17.485 182.094,17.665 182.544,17.792 182.750 C 17.953 183.011,17.973 182.934,17.857 182.500 C 17.765 182.156,17.585 181.706,17.458 181.500 C 17.297 181.239,17.277 181.316,17.393 181.750 M385.893 182.893 C 385.801 183.259,385.774 183.607,385.833 183.666 C 385.892 183.725,386.015 183.474,386.107 183.107 C 386.199 182.741,386.226 182.393,386.167 182.334 C 386.108 182.275,385.985 182.526,385.893 182.893 M384.904 185.904 C 384.683 186.553,384.545 187.128,384.598 187.181 C 384.650 187.234,384.875 186.746,385.096 186.096 C 385.317 185.447,385.455 184.872,385.402 184.819 C 385.350 184.766,385.125 185.254,384.904 185.904 M19.018 185.875 C 19.018 186.012,19.178 186.406,19.375 186.750 C 19.572 187.094,19.732 187.262,19.732 187.125 C 19.732 186.988,19.572 186.594,19.375 186.250 C 19.178 185.906,19.018 185.738,19.018 185.875 M19.768 187.625 C 19.768 187.762,19.928 188.156,20.125 188.500 C 20.322 188.844,20.482 189.012,20.482 188.875 C 20.482 188.738,20.322 188.344,20.125 188.000 C 19.928 187.656,19.768 187.488,19.768 187.625 M384.028 188.278 C 383.874 188.720,383.791 189.125,383.845 189.178 C 383.898 189.232,384.068 188.914,384.222 188.472 C 384.376 188.030,384.459 187.625,384.405 187.572 C 384.352 187.518,384.182 187.836,384.028 188.278 M20.518 189.375 C 20.518 189.512,20.678 189.906,20.875 190.250 C 21.072 190.594,21.232 190.762,21.232 190.625 C 21.232 190.488,21.072 190.094,20.875 189.750 C 20.678 189.406,20.518 189.238,20.518 189.375 M383.291 190.136 C 382.872 191.055,382.952 191.251,383.405 190.415 C 383.616 190.025,383.742 189.659,383.685 189.602 C 383.628 189.545,383.450 189.785,383.291 190.136 M381.678 193.635 C 381.032 194.936,380.558 196.000,380.624 196.000 C 380.790 196.000,383.053 191.470,382.942 191.359 C 382.893 191.310,382.324 192.334,381.678 193.635 M21.524 191.625 C 21.524 191.762,21.907 192.606,22.375 193.500 C 22.843 194.394,23.226 195.012,23.226 194.875 C 23.226 194.738,22.843 193.894,22.375 193.000 C 21.907 192.106,21.524 191.488,21.524 191.625 M379.875 197.000 C 379.662 197.412,379.543 197.750,379.612 197.750 C 379.681 197.750,379.912 197.412,380.125 197.000 C 380.338 196.588,380.457 196.250,380.388 196.250 C 380.319 196.250,380.088 196.588,379.875 197.000 M24.875 198.500 C 25.360 199.463,25.813 200.250,25.881 200.250 C 25.950 200.250,25.610 199.463,25.125 198.500 C 24.640 197.537,24.187 196.750,24.119 196.750 C 24.050 196.750,24.390 197.537,24.875 198.500 M379.095 198.313 C 378.235 199.772,378.179 199.897,378.617 199.375 C 379.125 198.770,379.562 198.000,379.399 198.000 C 379.333 198.000,379.197 198.141,379.095 198.313 M26.500 201.500 C 26.781 202.050,27.066 202.500,27.135 202.500 C 27.204 202.500,27.031 202.050,26.750 201.500 C 26.469 200.950,26.184 200.500,26.115 200.500 C 26.046 200.500,26.219 200.950,26.500 201.500 M375.740 203.313 C 375.014 204.309,374.590 204.984,374.799 204.811 C 375.223 204.461,377.345 201.500,377.172 201.500 C 377.111 201.500,376.467 202.316,375.740 203.313 M27.923 204.000 C 28.309 204.688,28.835 205.504,29.092 205.813 L 29.559 206.375 29.196 205.750 C 28.996 205.406,28.522 204.591,28.143 203.938 C 27.763 203.284,27.400 202.750,27.337 202.750 C 27.273 202.750,27.537 203.313,27.923 204.000 M29.881 207.142 C 30.113 207.563,30.526 208.182,30.798 208.517 L 31.292 209.125 30.869 208.358 C 30.637 207.937,30.224 207.318,29.952 206.983 L 29.458 206.375 29.881 207.142 M372.592 207.313 C 369.709 210.590,367.292 213.108,365.401 214.803 C 363.515 216.493,363.683 216.288,366.381 213.608 C 368.172 211.830,370.354 209.559,371.230 208.563 C 372.106 207.566,372.882 206.750,372.955 206.750 C 373.028 206.750,372.864 207.003,372.592 207.313 M32.250 210.750 C 32.810 211.575,33.325 212.250,33.394 212.250 C 33.462 212.250,33.060 211.575,32.500 210.750 C 31.940 209.925,31.425 209.250,31.356 209.250 C 31.288 209.250,31.690 209.925,32.250 210.750 M34.118 213.375 C 35.156 214.826,37.503 217.750,37.630 217.750 C 37.753 217.750,34.094 213.009,33.676 212.625 C 33.525 212.488,33.725 212.825,34.118 213.375 M362.106 217.771 C 361.322 218.637,357.270 221.626,354.875 223.104 C 351.901 224.941,351.567 225.191,353.375 224.228 C 356.548 222.538,363.617 217.250,362.702 217.250 C 362.634 217.250,362.365 217.485,362.106 217.771 M46.125 226.721 C 46.885 227.555,50.542 230.575,52.375 231.881 C 53.992 233.034,52.805 231.973,50.474 230.182 C 49.291 229.273,47.660 227.937,46.849 227.213 C 46.038 226.489,45.712 226.268,46.125 226.721 M348.250 226.625 C 347.906 226.822,347.738 226.982,347.875 226.982 C 348.012 226.982,348.406 226.822,348.750 226.625 C 349.094 226.428,349.262 226.268,349.125 226.268 C 348.988 226.268,348.594 226.428,348.250 226.625 M346.125 227.518 C 345.575 227.782,345.406 227.929,345.750 227.843 C 346.458 227.667,347.757 227.016,347.375 227.029 C 347.238 227.033,346.675 227.253,346.125 227.518 M343.000 228.625 C 342.106 228.947,341.494 229.220,341.639 229.230 C 341.973 229.255,345.000 228.239,345.000 228.102 C 345.000 227.934,344.700 228.012,343.000 228.625 M340.125 229.500 C 339.810 229.635,339.764 229.715,340.000 229.715 C 340.206 229.715,340.600 229.618,340.875 229.500 C 341.190 229.365,341.236 229.285,341.000 229.285 C 340.794 229.285,340.400 229.382,340.125 229.500 M336.000 230.500 C 335.505 230.658,335.479 230.700,335.875 230.700 C 336.150 230.700,336.656 230.610,337.000 230.500 C 337.495 230.342,337.521 230.300,337.125 230.300 C 336.850 230.300,336.344 230.390,336.000 230.500 M330.125 231.500 C 329.275 231.652,329.237 231.682,329.875 231.700 C 330.288 231.712,331.075 231.628,331.625 231.514 C 332.933 231.244,331.626 231.231,330.125 231.500 M327.188 231.926 C 327.497 231.986,328.003 231.986,328.313 231.926 C 328.622 231.867,328.369 231.818,327.750 231.818 C 327.131 231.818,326.878 231.867,327.188 231.926 M311.790 232.938 C 311.828 233.838,311.834 233.844,311.930 233.078 C 311.990 232.599,312.198 232.237,312.452 232.170 C 312.753 232.090,312.712 232.050,312.313 232.029 C 311.817 232.003,311.755 232.112,311.790 232.938 M322.938 232.183 C 323.522 232.236,324.478 232.236,325.063 232.183 C 325.647 232.130,325.169 232.087,324.000 232.087 C 322.831 232.087,322.353 232.130,322.938 232.183 M315.052 232.435 C 315.974 232.483,317.549 232.483,318.552 232.436 C 319.554 232.388,318.800 232.349,316.875 232.349 C 314.950 232.348,314.129 232.387,315.052 232.435 M54.059 233.057 C 54.801 233.688,56.250 234.592,56.250 234.425 C 56.250 234.367,55.603 233.906,54.813 233.398 C 54.022 232.891,53.683 232.737,54.059 233.057 M311.500 234.593 C 311.500 234.919,311.220 236.289,310.878 237.638 C 310.536 238.986,310.297 240.131,310.348 240.181 C 310.483 240.316,311.468 236.551,311.656 235.181 C 311.745 234.532,311.746 234.000,311.659 234.000 C 311.572 234.000,311.500 234.267,311.500 234.593 M56.875 234.873 C 57.434 235.337,59.017 236.193,58.625 235.819 C 58.487 235.687,57.925 235.327,57.375 235.019 C 56.825 234.710,56.600 234.644,56.875 234.873 M59.000 236.124 C 59.000 236.290,64.530 239.053,64.641 238.943 C 64.689 238.894,63.440 238.213,61.864 237.429 C 60.289 236.644,59.000 236.057,59.000 236.124 M65.500 239.375 C 65.844 239.572,66.237 239.732,66.375 239.732 C 66.513 239.732,66.344 239.572,66.000 239.375 C 65.656 239.178,65.263 239.018,65.125 239.018 C 64.987 239.018,65.156 239.178,65.500 239.375 M309.778 241.278 C 309.624 241.720,309.541 242.125,309.595 242.178 C 309.648 242.232,309.818 241.914,309.972 241.472 C 310.126 241.030,310.209 240.625,310.155 240.572 C 310.102 240.518,309.932 240.836,309.778 241.278 M72.125 241.750 C 72.400 241.868,72.794 241.965,73.000 241.965 C 73.236 241.965,73.190 241.885,72.875 241.750 C 72.600 241.632,72.206 241.535,72.000 241.535 C 71.764 241.535,71.810 241.615,72.125 241.750 M73.526 242.095 C 73.723 242.311,78.978 243.501,79.625 243.476 C 79.900 243.466,78.944 243.197,77.500 242.879 C 76.056 242.561,74.537 242.218,74.125 242.116 C 73.713 242.013,73.443 242.004,73.526 242.095 M309.041 243.136 C 308.622 244.055,308.702 244.251,309.155 243.415 C 309.366 243.025,309.492 242.659,309.435 242.602 C 309.378 242.545,309.200 242.785,309.041 243.136 M105.125 242.998 C 104.550 243.144,104.709 243.180,105.810 243.156 C 106.600 243.139,107.247 243.041,107.248 242.938 C 107.250 242.709,106.146 242.741,105.125 242.998 M101.875 243.500 C 101.025 243.652,100.987 243.682,101.625 243.700 C 102.037 243.712,102.825 243.628,103.375 243.514 C 104.683 243.244,103.376 243.231,101.875 243.500 M80.563 243.672 C 80.803 243.735,81.197 243.735,81.438 243.672 C 81.678 243.609,81.481 243.558,81.000 243.558 C 80.519 243.558,80.322 243.609,80.563 243.672 M107.250 243.592 C 107.250 243.863,108.492 246.250,108.633 246.250 C 108.702 246.250,108.462 245.659,108.099 244.938 C 107.402 243.549,107.250 243.309,107.250 243.592 M82.440 243.927 C 82.751 243.987,83.201 243.984,83.440 243.922 C 83.679 243.859,83.425 243.810,82.875 243.813 C 82.325 243.816,82.129 243.867,82.440 243.927 M99.188 243.926 C 99.497 243.986,100.003 243.986,100.313 243.926 C 100.622 243.867,100.369 243.818,99.750 243.818 C 99.131 243.818,98.878 243.867,99.188 243.926 M84.813 244.179 C 85.191 244.236,85.809 244.236,86.188 244.179 C 86.566 244.122,86.256 244.075,85.500 244.075 C 84.744 244.075,84.434 244.122,84.813 244.179 M96.442 244.181 C 96.891 244.237,97.566 244.236,97.942 244.179 C 98.318 244.122,97.950 244.076,97.125 244.077 C 96.300 244.079,95.993 244.126,96.442 244.181 M89.438 244.436 C 90.434 244.483,92.066 244.483,93.063 244.436 C 94.059 244.388,93.244 244.349,91.250 244.349 C 89.256 244.349,88.441 244.388,89.438 244.436 M307.125 247.000 C 306.912 247.412,306.793 247.750,306.862 247.750 C 306.931 247.750,307.162 247.412,307.375 247.000 C 307.588 246.588,307.707 246.250,307.638 246.250 C 307.569 246.250,307.338 246.588,307.125 247.000 M109.500 248.000 C 109.781 248.550,110.066 249.000,110.135 249.000 C 110.204 249.000,110.031 248.550,109.750 248.000 C 109.469 247.450,109.184 247.000,109.115 247.000 C 109.046 247.000,109.219 247.450,109.500 248.000 M305.866 249.063 C 305.480 249.647,305.325 249.993,305.520 249.832 C 305.895 249.522,306.853 248.000,306.672 248.000 C 306.614 248.000,306.251 248.478,305.866 249.063 M111.000 250.750 C 111.281 251.300,111.566 251.750,111.635 251.750 C 111.704 251.750,111.531 251.300,111.250 250.750 C 110.969 250.200,110.684 249.750,110.615 249.750 C 110.546 249.750,110.719 250.200,111.000 250.750 M303.554 252.220 C 301.618 254.717,297.865 258.459,295.223 260.526 C 292.632 262.552,291.885 263.203,293.000 262.461 C 296.540 260.107,301.818 254.997,304.515 251.313 C 305.837 249.507,305.165 250.141,303.554 252.220 M112.125 252.750 C 112.338 253.162,112.569 253.500,112.638 253.500 C 112.707 253.500,112.588 253.162,112.375 252.750 C 112.162 252.338,111.931 252.000,111.862 252.000 C 111.793 252.000,111.912 252.338,112.125 252.750 M113.288 254.764 C 113.602 255.322,114.011 255.905,114.197 256.060 C 114.383 256.214,114.174 255.758,113.731 255.046 C 112.775 253.509,112.475 253.318,113.288 254.764 M115.000 257.250 C 115.294 257.663,115.590 258.000,115.659 258.000 C 115.728 258.000,115.544 257.663,115.250 257.250 C 114.956 256.837,114.660 256.500,114.591 256.500 C 114.522 256.500,114.706 256.837,115.000 257.250 M204.625 259.667 C 203.525 260.708,201.500 262.494,200.125 263.636 C 198.750 264.778,197.344 265.956,197.000 266.253 L 196.375 266.793 197.125 266.293 C 198.284 265.520,201.619 262.698,204.314 260.211 L 206.752 257.960 208.265 259.329 C 209.938 260.843,212.750 263.096,212.750 262.922 C 212.750 262.861,211.709 261.964,210.438 260.929 C 209.166 259.894,207.852 258.756,207.519 258.399 C 206.739 257.564,206.938 257.477,204.625 259.667 M213.704 263.705 C 214.693 264.580,216.750 266.077,216.750 265.921 C 216.750 265.860,215.878 265.172,214.813 264.391 C 213.747 263.610,213.248 263.301,213.704 263.705 M290.680 263.855 C 289.204 264.877,288.853 265.235,289.941 264.608 C 290.781 264.124,292.223 263.014,292.000 263.023 C 291.931 263.025,291.337 263.400,290.680 263.855 M217.000 266.091 C 217.000 266.160,217.338 266.456,217.750 266.750 C 218.162 267.044,218.500 267.228,218.500 267.159 C 218.500 267.090,218.162 266.794,217.750 266.500 C 217.338 266.206,217.000 266.022,217.000 266.091 M194.016 268.272 C 191.812 269.827,191.098 270.422,192.375 269.639 C 194.201 268.521,196.725 266.620,196.188 266.767 C 196.153 266.777,195.176 267.454,194.016 268.272 M282.750 268.375 C 281.031 269.254,279.711 269.980,279.816 269.987 C 280.082 270.005,286.000 267.025,286.000 266.873 C 286.000 266.702,286.200 266.610,282.750 268.375 M219.125 267.623 C 219.684 268.087,221.267 268.943,220.875 268.569 C 220.738 268.437,220.175 268.077,219.625 267.769 C 219.075 267.460,218.850 267.394,219.125 267.623 M221.250 268.874 C 221.250 269.041,225.280 271.053,225.391 270.942 C 225.441 270.892,224.529 270.380,223.366 269.803 C 222.202 269.226,221.250 268.808,221.250 268.874 M127.000 269.841 C 127.000 269.910,127.338 270.206,127.750 270.500 C 128.162 270.794,128.500 270.978,128.500 270.909 C 128.500 270.840,128.162 270.544,127.750 270.250 C 127.338 269.956,127.000 269.772,127.000 269.841 M278.500 270.375 C 278.156 270.572,277.988 270.732,278.125 270.732 C 278.262 270.732,278.656 270.572,279.000 270.375 C 279.344 270.178,279.512 270.018,279.375 270.018 C 279.238 270.018,278.844 270.178,278.500 270.375 M129.875 271.873 C 130.434 272.337,132.017 273.193,131.625 272.819 C 131.488 272.687,130.925 272.327,130.375 272.019 C 129.825 271.710,129.600 271.644,129.875 271.873 M187.688 272.141 C 187.034 272.481,186.500 272.816,186.500 272.884 C 186.500 272.952,187.063 272.723,187.750 272.375 C 188.438 272.027,189.000 271.687,189.000 271.621 C 189.000 271.455,189.022 271.447,187.688 272.141 M273.250 272.375 C 272.356 272.697,271.744 272.970,271.889 272.980 C 272.223 273.005,275.250 271.989,275.250 271.852 C 275.250 271.684,274.950 271.762,273.250 272.375 M229.403 272.614 C 229.830 272.811,230.505 273.037,230.903 273.115 C 231.521 273.237,231.499 273.208,230.750 272.914 C 229.400 272.385,228.446 272.172,229.403 272.614 M183.750 274.125 C 183.131 274.456,182.738 274.727,182.875 274.727 C 183.012 274.727,183.631 274.456,184.250 274.125 C 184.869 273.794,185.262 273.523,185.125 273.523 C 184.988 273.523,184.369 273.794,183.750 274.125 M135.000 274.625 C 135.344 274.822,135.738 274.982,135.875 274.982 C 136.012 274.982,135.844 274.822,135.500 274.625 C 135.156 274.428,134.762 274.268,134.625 274.268 C 134.488 274.268,134.656 274.428,135.000 274.625 M237.375 274.881 C 238.063 275.057,238.906 275.201,239.250 275.200 C 239.594 275.199,239.200 275.046,238.375 274.860 C 236.485 274.434,235.699 274.450,237.375 274.881 M264.125 274.750 C 263.451 274.921,263.439 274.941,264.000 274.946 C 264.344 274.948,264.906 274.860,265.250 274.750 C 266.090 274.481,265.183 274.481,264.125 274.750 M181.500 275.125 C 181.156 275.322,180.988 275.482,181.125 275.482 C 181.262 275.482,181.656 275.322,182.000 275.125 C 182.344 274.928,182.512 274.768,182.375 274.768 C 182.238 274.768,181.844 274.928,181.500 275.125 M136.500 275.208 C 136.706 275.335,137.156 275.515,137.500 275.607 C 137.934 275.723,138.011 275.703,137.750 275.542 C 137.544 275.415,137.094 275.235,136.750 275.143 C 136.316 275.027,136.239 275.047,136.500 275.208 M261.250 275.250 C 260.406 275.428,260.402 275.434,261.125 275.438 C 261.538 275.439,262.212 275.355,262.625 275.250 C 263.663 274.986,262.504 274.986,261.250 275.250 M240.875 275.501 C 241.886 275.724,243.671 275.830,243.479 275.656 C 243.422 275.604,242.588 275.498,241.625 275.421 C 240.280 275.314,240.106 275.332,240.875 275.501 M179.625 275.884 C 179.000 276.185,178.979 276.220,179.500 276.092 C 180.208 275.919,181.005 275.513,180.625 275.519 C 180.488 275.521,180.037 275.685,179.625 275.884 M256.875 275.750 L 255.375 275.916 256.625 275.936 C 257.313 275.947,258.438 275.869,259.125 275.762 C 260.780 275.504,259.175 275.496,256.875 275.750 M244.313 275.929 C 244.691 275.986,245.309 275.986,245.688 275.929 C 246.066 275.872,245.756 275.825,245.000 275.825 C 244.244 275.825,243.934 275.872,244.313 275.929 M248.550 276.186 C 249.746 276.232,251.771 276.232,253.050 276.186 C 254.329 276.141,253.350 276.104,250.875 276.103 C 248.400 276.103,247.354 276.140,248.550 276.186 M140.875 276.750 C 141.150 276.868,141.544 276.965,141.750 276.965 C 141.986 276.965,141.940 276.885,141.625 276.750 C 141.350 276.632,140.956 276.535,140.750 276.535 C 140.514 276.535,140.560 276.615,140.875 276.750 M142.625 277.250 C 142.900 277.368,143.294 277.465,143.500 277.465 C 143.736 277.465,143.690 277.385,143.375 277.250 C 143.100 277.132,142.706 277.035,142.500 277.035 C 142.264 277.035,142.310 277.115,142.625 277.250 M175.375 277.250 C 175.060 277.385,175.014 277.465,175.250 277.465 C 175.456 277.465,175.850 277.368,176.125 277.250 C 176.440 277.115,176.486 277.035,176.250 277.035 C 176.044 277.035,175.650 277.132,175.375 277.250 M150.875 279.001 C 151.886 279.224,153.671 279.330,153.479 279.156 C 153.422 279.104,152.588 278.998,151.625 278.921 C 150.280 278.814,150.106 278.832,150.875 279.001 M166.875 279.000 C 166.025 279.152,165.987 279.182,166.625 279.200 C 167.037 279.212,167.825 279.128,168.375 279.014 C 169.683 278.744,168.376 278.731,166.875 279.000 M154.442 279.431 C 154.891 279.487,155.566 279.486,155.942 279.429 C 156.318 279.372,155.950 279.326,155.125 279.327 C 154.300 279.329,153.993 279.376,154.442 279.431 M163.692 279.431 C 164.141 279.487,164.816 279.486,165.192 279.429 C 165.568 279.372,165.200 279.326,164.375 279.327 C 163.550 279.329,163.243 279.376,163.692 279.431 M158.313 279.685 C 159.103 279.734,160.397 279.734,161.188 279.685 C 161.978 279.635,161.331 279.595,159.750 279.595 C 158.169 279.595,157.522 279.635,158.313 279.685 " stroke="none" fill="#fbfafa" fill-rule="evenodd"></path><path id="path1" d="M248.125 36.673 C 228.990 38.378,208.804 49.068,200.132 62.090 C 192.847 73.030,190.566 88.695,194.526 100.601 C 201.487 121.532,233.768 131.686,248.170 117.475 C 253.650 112.068,255.834 101.383,253.045 93.625 C 250.717 87.151,250.773 84.235,253.277 81.382 C 254.355 80.154,254.483 80.221,255.797 82.688 C 261.309 93.039,263.200 103.998,260.979 112.715 C 255.328 134.892,215.402 138.552,194.926 118.770 C 183.965 108.180,181.129 96.659,184.780 77.545 C 185.340 74.613,185.722 72.138,185.628 72.045 C 184.894 71.309,170.711 71.836,165.750 72.784 C 140.826 77.543,127.969 95.877,124.502 131.602 C 123.776 139.075,123.789 138.999,123.297 139.007 C 111.520 139.190,105.933 140.293,98.625 143.879 C 93.162 146.559,90.464 148.443,79.136 157.492 C 59.947 172.821,55.878 175.048,46.375 175.426 C 39.940 175.682,35.958 174.707,23.697 169.873 C 22.559 169.424,30.170 188.612,34.768 197.787 C 50.175 228.526,72.070 241.038,102.087 236.257 C 105.661 235.687,105.314 236.191,104.587 232.625 C 101.053 215.296,107.690 201.363,123.120 193.719 C 142.510 184.114,167.052 190.084,172.096 205.634 C 173.387 209.612,173.689 219.610,172.497 218.873 C 171.357 218.168,168.778 214.101,167.488 210.972 C 163.035 200.169,158.206 196.857,146.500 196.575 C 115.805 195.837,103.570 214.784,116.116 243.625 C 125.084 264.240,137.036 272.113,159.375 272.122 C 174.600 272.129,180.781 269.224,204.250 251.034 C 206.931 248.956,209.181 247.263,209.250 247.272 C 209.319 247.281,210.500 248.815,211.875 250.682 C 219.665 261.256,226.693 265.469,240.738 267.984 C 267.746 272.821,297.618 258.707,304.201 238.000 C 306.505 230.754,306.359 229.702,302.875 228.408 C 285.901 222.101,277.099 202.830,281.278 181.125 C 285.142 161.057,300.210 148.948,315.873 153.323 C 320.641 154.654,322.375 156.216,322.375 159.178 C 322.375 162.182,320.335 162.634,314.625 160.894 C 305.396 158.082,299.470 160.566,294.176 169.467 C 280.812 191.932,288.611 217.636,310.608 223.626 C 334.386 230.102,363.562 216.317,374.931 193.235 C 388.677 165.328,387.129 133.821,370.721 107.532 C 359.015 88.777,343.364 80.550,318.419 80.038 L 310.463 79.875 309.503 76.109 C 304.684 57.205,293.795 46.097,273.760 39.646 C 265.885 37.110,256.038 35.968,248.125 36.673 " stroke="none" fill="#bb2324" fill-rule="evenodd"></path><path id="path2" d="M251.938 36.436 C 252.934 36.483,254.566 36.483,255.563 36.436 C 256.559 36.388,255.744 36.349,253.750 36.349 C 251.756 36.349,250.941 36.388,251.938 36.436 M175.438 71.685 C 176.297 71.734,177.703 71.734,178.563 71.685 C 179.422 71.636,178.719 71.596,177.000 71.596 C 175.281 71.596,174.578 71.636,175.438 71.685 M325.063 80.172 C 325.303 80.235,325.697 80.235,325.938 80.172 C 326.178 80.109,325.981 80.058,325.500 80.058 C 325.019 80.058,324.822 80.109,325.063 80.172 M192.563 84.875 C 192.566 85.425,192.617 85.621,192.677 85.310 C 192.737 84.999,192.734 84.549,192.672 84.310 C 192.609 84.071,192.560 84.325,192.563 84.875 M192.558 91.500 C 192.558 91.981,192.609 92.178,192.672 91.938 C 192.735 91.697,192.735 91.303,192.672 91.063 C 192.609 90.822,192.558 91.019,192.558 91.500 M361.875 96.250 C 362.969 97.350,363.920 98.250,363.988 98.250 C 364.057 98.250,363.219 97.350,362.125 96.250 C 361.031 95.150,360.080 94.250,360.012 94.250 C 359.943 94.250,360.781 95.150,361.875 96.250 M254.334 100.000 C 254.334 101.031,254.378 101.453,254.432 100.938 C 254.486 100.422,254.486 99.578,254.432 99.063 C 254.378 98.547,254.334 98.969,254.334 100.000 M255.116 122.563 L 253.875 123.875 255.188 122.634 C 255.909 121.952,256.500 121.361,256.500 121.322 C 256.500 121.135,256.268 121.343,255.116 122.563 M228.816 124.429 C 229.196 124.487,229.758 124.485,230.066 124.426 C 230.373 124.367,230.063 124.320,229.375 124.322 C 228.688 124.323,228.436 124.372,228.816 124.429 M232.063 131.422 C 232.303 131.485,232.697 131.485,232.938 131.422 C 233.178 131.359,232.981 131.308,232.500 131.308 C 232.019 131.308,231.822 131.359,232.063 131.422 M116.066 139.179 C 116.446 139.237,117.008 139.235,117.316 139.176 C 117.623 139.117,117.313 139.070,116.625 139.072 C 115.938 139.073,115.686 139.122,116.066 139.179 M384.322 150.875 C 384.323 151.563,384.372 151.814,384.429 151.434 C 384.487 151.054,384.485 150.492,384.426 150.184 C 384.367 149.877,384.320 150.188,384.322 150.875 M310.563 152.672 C 310.803 152.735,311.197 152.735,311.438 152.672 C 311.678 152.609,311.481 152.558,311.000 152.558 C 310.519 152.558,310.322 152.609,310.563 152.672 M384.322 158.375 C 384.323 159.063,384.372 159.314,384.429 158.934 C 384.487 158.554,384.485 157.992,384.426 157.684 C 384.367 157.377,384.320 157.688,384.322 158.375 M42.938 175.426 C 43.247 175.486,43.753 175.486,44.063 175.426 C 44.372 175.367,44.119 175.318,43.500 175.318 C 42.881 175.318,42.628 175.367,42.938 175.426 M45.938 175.426 C 46.247 175.486,46.753 175.486,47.063 175.426 C 47.372 175.367,47.119 175.318,46.500 175.318 C 45.881 175.318,45.628 175.367,45.938 175.426 M280.347 191.625 C 280.348 193.412,280.387 194.111,280.436 193.177 C 280.484 192.243,280.483 190.781,280.435 189.927 C 280.386 189.073,280.347 189.838,280.347 191.625 M142.313 189.184 C 142.966 189.235,144.034 189.235,144.688 189.184 C 145.341 189.132,144.806 189.090,143.500 189.090 C 142.194 189.090,141.659 189.132,142.313 189.184 M287.336 192.375 C 287.337 193.475,287.381 193.894,287.433 193.306 C 287.486 192.718,287.485 191.818,287.432 191.306 C 287.378 190.794,287.335 191.275,287.336 192.375 M141.188 196.426 C 141.497 196.486,142.003 196.486,142.313 196.426 C 142.622 196.367,142.369 196.318,141.750 196.318 C 141.131 196.318,140.878 196.367,141.188 196.426 M145.813 196.432 C 146.328 196.486,147.172 196.486,147.688 196.432 C 148.203 196.378,147.781 196.334,146.750 196.334 C 145.719 196.334,145.297 196.378,145.813 196.432 M167.240 198.063 C 167.853 198.716,168.387 199.250,168.427 199.250 C 168.615 199.250,168.416 199.026,167.313 197.990 L 166.125 196.875 167.240 198.063 M161.750 201.625 C 162.497 202.381,163.164 203.000,163.233 203.000 C 163.302 203.000,162.747 202.381,162.000 201.625 C 161.253 200.869,160.586 200.250,160.517 200.250 C 160.448 200.250,161.003 200.869,161.750 201.625 M48.250 218.578 C 48.250 218.621,48.616 218.987,49.063 219.391 L 49.875 220.125 49.141 219.313 C 48.456 218.555,48.250 218.385,48.250 218.578 M50.000 220.328 C 50.000 220.371,50.366 220.737,50.813 221.141 L 51.625 221.875 50.891 221.063 C 50.206 220.305,50.000 220.135,50.000 220.328 M103.808 221.000 C 103.808 221.481,103.859 221.678,103.922 221.438 C 103.985 221.197,103.985 220.803,103.922 220.563 C 103.859 220.322,103.808 220.519,103.808 221.000 M111.063 221.875 C 111.066 222.425,111.117 222.621,111.177 222.310 C 111.237 221.999,111.234 221.549,111.172 221.310 C 111.109 221.071,111.060 221.325,111.063 221.875 M51.750 222.078 C 51.750 222.121,52.116 222.487,52.563 222.891 L 53.375 223.625 52.641 222.813 C 51.956 222.055,51.750 221.885,51.750 222.078 M318.688 225.176 C 318.997 225.236,319.503 225.236,319.813 225.176 C 320.122 225.117,319.869 225.068,319.250 225.068 C 318.631 225.068,318.378 225.117,318.688 225.176 M325.190 225.177 C 325.501 225.237,325.951 225.234,326.190 225.172 C 326.429 225.109,326.175 225.060,325.625 225.063 C 325.075 225.066,324.879 225.117,325.190 225.177 M111.058 226.000 C 111.058 226.481,111.109 226.678,111.172 226.438 C 111.235 226.197,111.235 225.803,111.172 225.563 C 111.109 225.322,111.058 225.519,111.058 226.000 M103.808 226.250 C 103.808 226.731,103.859 226.928,103.922 226.688 C 103.985 226.447,103.985 226.053,103.922 225.813 C 103.859 225.572,103.808 225.769,103.808 226.250 M305.813 230.875 C 305.816 231.425,305.867 231.621,305.927 231.310 C 305.987 230.999,305.984 230.549,305.922 230.310 C 305.859 230.071,305.810 230.325,305.813 230.875 M88.188 237.435 C 89.047 237.484,90.453 237.484,91.313 237.435 C 92.172 237.386,91.469 237.346,89.750 237.346 C 88.031 237.346,87.328 237.386,88.188 237.435 M295.491 252.188 L 294.125 253.625 295.563 252.259 C 296.898 250.989,297.115 250.750,296.929 250.750 C 296.890 250.750,296.243 251.397,295.491 252.188 M218.250 258.328 C 218.250 258.371,218.616 258.737,219.063 259.141 L 219.875 259.875 219.141 259.063 C 218.456 258.305,218.250 258.135,218.250 258.328 M127.125 261.250 C 127.802 261.938,128.412 262.500,128.481 262.500 C 128.550 262.500,128.052 261.938,127.375 261.250 C 126.698 260.563,126.088 260.000,126.019 260.000 C 125.950 260.000,126.448 260.563,127.125 261.250 M250.447 269.185 C 251.312 269.234,252.662 269.234,253.447 269.184 C 254.233 269.135,253.525 269.095,251.875 269.095 C 250.225 269.096,249.583 269.136,250.447 269.185 M156.182 272.430 C 156.626 272.486,157.413 272.487,157.932 272.432 C 158.451 272.378,158.088 272.333,157.125 272.332 C 156.162 272.331,155.738 272.375,156.182 272.430 M161.816 272.429 C 162.196 272.487,162.758 272.485,163.066 272.426 C 163.373 272.367,163.063 272.320,162.375 272.322 C 161.688 272.323,161.436 272.372,161.816 272.429 " stroke="none" fill="#d2716a" fill-rule="evenodd"></path><path id="path3" d="M184.563 71.922 C 184.803 71.985,185.197 71.985,185.438 71.922 C 185.678 71.859,185.481 71.808,185.000 71.808 C 184.519 71.808,184.322 71.859,184.563 71.922 M183.063 90.875 C 183.066 91.425,183.117 91.621,183.177 91.310 C 183.237 90.999,183.234 90.549,183.172 90.310 C 183.109 90.071,183.060 90.325,183.063 90.875 M384.327 154.625 C 384.329 155.450,384.376 155.757,384.431 155.308 C 384.487 154.859,384.486 154.184,384.429 153.808 C 384.372 153.432,384.326 153.800,384.327 154.625 M322.188 225.176 C 322.497 225.236,323.003 225.236,323.313 225.176 C 323.622 225.117,323.369 225.068,322.750 225.068 C 322.131 225.068,321.878 225.117,322.188 225.176 " stroke="none" fill="#c43a38" fill-rule="evenodd"></path><path id="path4" d="M296.750 52.625 C 297.216 53.106,297.654 53.500,297.723 53.500 C 297.792 53.500,297.466 53.106,297.000 52.625 C 296.534 52.144,296.096 51.750,296.027 51.750 C 295.958 51.750,296.284 52.144,296.750 52.625 M141.863 84.813 L 140.875 85.875 141.938 84.887 C 142.926 83.968,143.115 83.750,142.926 83.750 C 142.885 83.750,142.407 84.228,141.863 84.813 M261.832 104.125 C 261.833 105.088,261.878 105.451,261.932 104.932 C 261.987 104.413,261.986 103.626,261.930 103.182 C 261.875 102.738,261.831 103.162,261.832 104.125 M228.063 131.672 C 228.303 131.735,228.697 131.735,228.938 131.672 C 229.178 131.609,228.981 131.558,228.500 131.558 C 228.019 131.558,227.822 131.609,228.063 131.672 M118.188 139.176 C 118.497 139.236,119.003 139.236,119.313 139.176 C 119.622 139.117,119.369 139.068,118.750 139.068 C 118.131 139.068,117.878 139.117,118.188 139.176 M291.487 160.438 L 290.625 161.375 291.563 160.513 C 292.435 159.712,292.615 159.500,292.424 159.500 C 292.382 159.500,291.960 159.922,291.487 160.438 M143.316 196.429 C 143.696 196.487,144.258 196.485,144.566 196.426 C 144.873 196.367,144.563 196.320,143.875 196.322 C 143.188 196.323,142.936 196.372,143.316 196.429 M217.250 257.375 C 217.716 257.856,218.154 258.250,218.223 258.250 C 218.292 258.250,217.966 257.856,217.500 257.375 C 217.034 256.894,216.596 256.500,216.527 256.500 C 216.458 256.500,216.784 256.894,217.250 257.375 M159.313 272.429 C 159.691 272.486,160.309 272.486,160.688 272.429 C 161.066 272.372,160.756 272.325,160.000 272.325 C 159.244 272.325,158.934 272.372,159.313 272.429 " stroke="none" fill="#c44a45" fill-rule="evenodd"></path></g></svg>